<svg width="1132" height="319" viewBox="0 0 1132 319" fill="none" xmlns="http://www.w3.org/2000/svg">
<path d="M282.79 250.67V204.88C282.79 202.25 286.24 201.28 287.61 203.51L311.22 241.82C312.83 244.77 313.63 245.84 316.85 246.65C323.56 247.99 328.92 248.53 335.9 248.53C363.53 248.53 380.96 234.58 380.96 213.93C380.96 195.16 367.81 186.57 347.97 178.26L325.44 168.87C304.25 160.02 283.87 145 283.87 116.57C283.87 83.0402 312.3 62.6602 352.54 62.6602C367.02 62.6602 381.51 64.0002 396.53 67.7602V110.58C396.53 113.16 393.17 114.17 391.75 112.02L369.44 78.2202C367.83 75.5402 366.22 74.4602 363.81 74.2002C360.32 73.6602 356.57 73.3902 352.28 73.3902C325.73 73.3902 310.97 88.4102 310.97 107.45C310.97 121.93 319.55 132.13 339.13 140.44L363.81 150.63C388.75 161.09 409.14 172.63 409.14 201.59C409.14 235.65 382.32 259.26 336.45 259.26C318.75 259.26 299.7 256.58 282.8 250.68L282.79 250.67Z" fill="#191919"/>
<path d="M497.56 138.02C484.15 138.02 473.42 146.87 466.18 160.55V234.31C466.18 237.26 466.72 238.07 468.86 239.68L482.24 250.61C484.14 252.16 483.04 255.23 480.59 255.23H423.78C421.34 255.23 420.24 252.18 422.12 250.62L435.33 239.68C437.74 238.07 438.28 237.26 438.28 234.31V85.1803C438.28 82.5003 438.01 81.4203 435.87 79.5503L424.06 69.3703C422.47 68.0003 423.07 65.4103 425.1 64.8803L466.18 54.0703V145.8C476.37 129.97 488.17 120.59 508.02 120.59C535.65 120.59 552.01 138.56 552.01 175.58C552.01 192.48 551.47 215.81 551.2 234.32C551.2 237.27 551.74 238.08 554.15 239.69L567.36 250.63C569.24 252.19 568.14 255.24 565.7 255.24H508.81C506.37 255.24 505.27 252.19 507.15 250.63L520.36 239.69C523.04 237.81 523.31 237.27 523.31 234.32C523.58 226.01 523.58 192.21 523.58 178.8C523.58 146.88 511.78 138.03 497.56 138.03V138.02Z" fill="#191919"/>
<path d="M656.27 183.89C656.27 174.77 656.54 166.46 656.54 162.97C656.54 141.78 646.88 131.05 628.38 131.05C625.7 131.05 623.55 131.32 622.21 131.59C620.33 131.86 618.72 132.66 617.65 134.81L599.88 161.69C598.65 163.55 595.79 163.1 595.2 160.95L586.54 129.72C601.83 123.28 615.78 120.6 631.33 120.6C668.88 120.6 683.1 137.5 683.1 167C683.1 188.19 681.76 210.45 681.76 227.35C681.76 236.74 685.52 241.83 691.15 241.83C692.82 241.83 694.45 241.41 695.98 240.67C698.13 239.63 700.37 241.86 699.46 244.07C696.82 250.43 691.03 258.19 678.55 258.19C665.14 258.19 656.29 249.34 655.48 235.12C647.49 249.33 631.33 260.27 610.25 257.85C592.6 255.83 578.8 241.05 579.04 223.28C579.38 198.63 601.55 181.2 633.75 181.2C640.99 181.2 649.31 182.27 656.28 183.88L656.27 183.89ZM655.46 220.36C655.73 212.85 656 203.19 656 193.54C650.9 192.47 645.54 191.93 641.52 191.93C620.6 191.93 607.19 203.73 607.19 220.36C607.19 234.31 616.58 241.82 627.84 241.82C639.1 241.82 649.84 234.58 655.47 220.36H655.46Z" fill="#191919"/>
<path d="M708.25 318.27C705.8 318.27 704.7 315.2 706.6 313.65L719.98 302.71C722.12 301.1 722.66 300.3 722.66 297.35V150.63C722.66 147.95 722.39 147.14 720.52 145.27L704.92 128.17C703.39 126.5 704.58 123.81 706.84 123.81H747.87V147.41C757.79 127.83 773.35 120.59 790.25 120.59C819.48 120.59 843.36 143.92 843.36 185.77C843.36 232.98 813.59 258.46 783.01 258.46C769.33 258.46 757.8 253.37 750.82 245.85V294.67C750.82 298.42 751.36 299.23 754.31 300.57L776.12 313.42C778.41 314.77 777.45 318.27 774.8 318.27H708.24H708.25ZM812.79 187.91C812.79 157.06 799.38 136.95 779.53 136.95C768.8 136.95 758.07 142.85 750.83 157.87V231.9C756.73 241.02 765.31 245.85 775.78 245.85C794.55 245.85 812.79 228.95 812.79 187.91Z" fill="#191919"/>
<path d="M891.11 186.3C891.38 226.8 913.1 239.41 933.76 239.41C944.92 239.41 957.15 235.84 967.68 227.39C969.8 225.69 972.76 227.96 971.69 230.46C966.94 241.59 954.58 258.45 923.29 258.45C889.23 258.45 861.87 236.19 861.87 190.86C861.87 145.53 889.77 120.58 922.49 120.58C951.99 120.58 975.06 136.68 975.06 179.86V186.3H891.11ZM891.11 175.57H947.17C946.1 147.41 938.05 131.85 921.15 131.85C904.25 131.85 892.72 146.6 891.11 175.57Z" fill="#191919"/>
<path d="M1089.29 255.23V232.16C1081.51 248.52 1066.22 258.44 1047.98 258.44C1020.08 258.44 993.26 235.11 993.26 191.39C993.26 145.25 1023.3 120.58 1054.95 120.58C1066.48 120.58 1077.48 124.07 1086.33 131.31V85.1803C1086.33 82.5003 1086.33 81.4203 1084.18 79.5503L1071.85 66.3703C1070.45 64.8703 1071.25 62.4203 1073.26 62.0303L1114.49 54.0703V229.22C1114.49 231.9 1114.76 232.44 1117.17 234.85L1130.93 250.94C1132.38 252.63 1131.17 255.24 1128.95 255.24H1089.28L1089.29 255.23ZM1086.34 221.71V145C1080.71 138.03 1070.24 133.47 1060.86 133.47C1043.43 133.47 1023.85 148.76 1023.85 188.72C1023.85 224.66 1039.41 241.56 1057.38 241.56C1068.11 241.56 1080.45 235.39 1086.35 221.71H1086.34Z" fill="#191919"/>
<path d="M210.76 67.5102C213.25 67.3102 213.92 64.5702 211.72 63.6202L164.15 43.3802L112.78 21.5002L62.76 0.220218C61.92 -0.129782 60.9 -0.0597798 60.12 0.41022C39.89 12.7202 31.73 28.0902 31.9 44.4102C31.9 45.3002 31.94 46.2302 32.01 47.2202C32.01 47.2802 32.01 47.3402 32.01 47.4102C33.17 62.2802 42.55 87.6602 51.91 105.84C52.32 106.65 52.44 107.51 52.18 108.37C48.19 122.18 37.99 137.86 26.09 146.54C24.76 147.51 25.02 149.24 26.55 149.91L71.82 169.19C73.48 169.9 73.62 171.83 72.06 172.73C54.83 182.5 24.23 190.05 2.70002 191.8C0.210017 192 -0.460004 194.74 1.74 195.69L49.31 215.93L100.68 237.81L150.7 259.11C151.54 259.46 152.56 259.39 153.34 258.92C173.57 246.61 181.73 231.24 181.56 214.92C181.56 214.03 181.52 213.1 181.45 212.14C181.45 212.08 181.45 212.02 181.45 211.95C180.29 197.08 170.91 171.7 161.55 153.52C161.14 152.71 161.02 151.85 161.28 150.99C165.27 137.18 175.47 121.5 187.37 112.82C188.7 111.85 188.44 110.12 186.91 109.45L141.64 90.1702C139.98 89.4602 139.84 87.5302 141.4 86.6302C158.63 76.8602 189.23 69.3102 210.76 67.5602V67.5202V67.5102ZM101.2 24.4902C103.58 24.1902 104.98 26.6202 103.19 28.0102C90.45 38.0602 84.58 49.6302 83.45 62.1202C83.32 63.5902 81.39 64.4902 79.81 63.8202L38.95 46.4202C37.29 45.7102 37.15 43.7802 38.71 42.8802C54.21 34.1002 80.44 27.0902 101.18 24.4902H101.21H101.2ZM58.49 107.23C61.92 95.3102 69.98 82.0102 79.8 72.9802C81.21 71.6902 83.79 72.3102 84.1 74.0202C86.87 89.1402 95 111.3 103.32 127.67C103.73 128.48 103.82 129.34 103.59 130.2C100.16 142.12 92.1 155.42 82.28 164.45C80.87 165.74 78.29 165.12 77.98 163.41C75.21 148.29 67.08 126.13 58.76 109.79C58.35 108.98 58.26 108.12 58.49 107.26V107.24V107.23ZM82.24 173.59L123.2 191.02C124.86 191.73 125 193.66 123.44 194.56C107.94 203.36 81.63 210.34 60.84 212.92C58.46 213.22 57.06 210.78 58.85 209.4C71.62 199.35 77.49 187.78 78.61 175.27C78.74 173.8 80.67 172.9 82.25 173.57L82.23 173.59H82.24ZM112.24 234.81C109.86 235.11 108.47 232.67 110.25 231.29C122.99 221.24 128.86 209.67 129.99 197.18C130.12 195.71 132.05 194.81 133.63 195.48L174.49 212.88C176.15 213.59 176.29 215.52 174.73 216.42C159.23 225.2 133 232.21 112.26 234.81H112.23H112.24ZM154.96 152.05C151.53 163.97 143.47 177.27 133.65 186.3C132.24 187.59 129.66 186.97 129.35 185.26C126.58 170.14 118.45 147.98 110.13 131.63C109.72 130.82 109.63 129.96 109.86 129.1C113.29 117.18 121.35 103.88 131.17 94.8502C132.58 93.5602 135.16 94.1802 135.47 95.8902C138.24 111.01 146.37 133.17 154.69 149.54C155.1 150.35 155.19 151.21 154.96 152.07V152.05ZM131.21 85.7002L90.25 68.2702C88.59 67.5602 88.45 65.6302 90.01 64.7302C105.51 55.9302 131.81 48.9502 152.61 46.3702C154.99 46.0702 156.39 48.5002 154.6 49.8902C141.83 59.9402 135.96 71.5102 134.83 84.0202C134.7 85.4902 132.77 86.3902 131.19 85.7202L131.21 85.7002Z" fill="#191919"/>
</svg>
